<svg xmlns="http://www.w3.org/2000/svg" viewBox="0 0 400 280"><defs><style>.cls-1{isolation:isolate;}.cls-2{fill:#0b81a3;}.cls-3{fill:#F88611;}.cls-4{opacity:0.3;mix-blend-mode:multiply;}.cls-5{fill:#F88611;}</style></defs><title>ODS</title><g class="cls-1"><g id="Calque_4" data-name="Calque 4"><path class="cls-2" d="M200,228.11A88.11,88.11,0,1,1,288.11,140,88.21,88.21,0,0,1,200,228.11Zm0-153.72A65.61,65.61,0,1,0,265.61,140,65.69,65.69,0,0,0,200,74.39Z"/><path class="cls-3" d="M194,100.88l35.46,35.46a5.18,5.18,0,0,1,0,7.33L194,179.12a5.18,5.18,0,0,1-8.85-3.66V104.55A5.18,5.18,0,0,1,194,100.88Z"/><g class="cls-4"><path class="cls-2" d="M200,228.11a88.11,88.11,0,0,1,0-176.21v22.5a65.61,65.61,0,0,0,0,131.22Z"/></g><path class="cls-5" d="M194,100.88l35.46,35.46a5.18,5.18,0,0,1,0,7.33L194,179.12a5.18,5.18,0,0,1-8.85-3.66V104.55A5.18,5.18,0,0,1,194,100.88Z"/></g></g></svg>