<?xml version="1.0" encoding="UTF-8" standalone="no"?><!DOCTYPE svg PUBLIC "-//W3C//DTD SVG 1.1//EN" "http://www.w3.org/Graphics/SVG/1.1/DTD/svg11.dtd"><svg width="100%" height="100%" viewBox="0 0 411 155" version="1.1" xmlns="http://www.w3.org/2000/svg" xmlns:xlink="http://www.w3.org/1999/xlink" xml:space="preserve" xmlns:serif="http://www.serif.com/" style="fill-rule:evenodd;clip-rule:evenodd;stroke-linejoin:round;stroke-miterlimit:1.41421;"><g id="Calque_4"><path d="M72.61,81.9l15.52,2.51l-0.01,-16.22l-16.23,-2.3l0.72,16.01Z" style="fill:#fff;fill-rule:nonzero;"/><path d="M73.53,102.07l14.6,2.71l0,-14.29l-15.24,-2.57l0.64,14.15Z" style="fill:#fff;fill-rule:nonzero;"/><path d="M49.51,56.13l15.63,2.07l-1.13,-18.16l-16.38,-1.8l1.88,17.89Z" style="fill:#fff;fill-rule:nonzero;"/><path d="M28.62,53.35l14.8,1.97l-2.15,-17.78l-15.45,-1.71l2.8,17.52Z" style="fill:#fff;fill-rule:nonzero;"/><path d="M51.86,78.56l14.71,2.37l-1,-15.93l-15.36,-2.17l1.65,15.73Z" style="fill:#fff;fill-rule:nonzero;"/><path d="M100.61,56.59l-7.51,4.23l0.25,-18.49l7.87,-3.61l-0.61,17.87Z" style="fill:#fff;fill-rule:nonzero;"/><path d="M99.86,79.01l-7.07,4.88l0.21,-16.17l7.39,-4.43l-0.53,15.72Z" style="fill:#fff;fill-rule:nonzero;"/><path d="M110.13,51.24l-6.69,3.76l0.73,-17.64l6.96,-3.19l-1,17.07Z" style="fill:#fff;fill-rule:nonzero;"/><path d="M71.58,59.05l16.55,2.21l-0.01,-18.56l-17.37,-1.92l0.83,18.27Z" style="fill:#fff;fill-rule:nonzero;"/><path d="M81.07,32.92l16.83,1.67l-8.07,3.44l-17.43,-1.81l8.67,-3.3Z" style="fill:#fff;fill-rule:nonzero;"/><path d="M92,28.77l16.06,1.49l-7.13,3.04l-16.6,-1.61l7.67,-2.92Z" style="fill:#fff;fill-rule:nonzero;"/><path d="M101.75,25.07l15.34,1.33l-6.35,2.71l-15.84,-1.44l6.85,-2.6Z" style="fill:#fff;fill-rule:nonzero;"/><path d="M58.63,30.7l15.9,1.57l-8.89,3.24l-16.42,-1.71l9.41,-3.1Z" style="fill:#fff;fill-rule:nonzero;"/><path d="M70.47,26.77l15.22,1.41l-7.88,2.87l-15.7,-1.53l8.36,-2.75Z" style="fill:#fff;fill-rule:nonzero;"/><path d="M37.39,28.59l15.05,1.5l-9.6,3.04l-15.5,-1.61l10.05,-2.93Z" style="fill:#fff;fill-rule:nonzero;"/><path d="M123,64.05c0,-15.31 4.72,-21.18 13.35,-21.18c8.17,0 13.29,6.45 13.29,20.2c0,15.31 -4.72,21.29 -13.29,21.29c-8.03,0.01 -13.35,-6.55 -13.35,-20.31Zm17.49,-0.58c0,-11.45 -1.21,-14.21 -4.26,-14.21c-2.82,0 -4.09,3.28 -4.09,14.21c0,11.86 1.21,14.5 4.26,14.5c3.05,0 4.12,-2.23 4.12,-14.49l-0.03,-0.01Z" style="fill:#fff;fill-rule:nonzero;"/><path d="M152,54.16l7.08,-0.86c0.269,0.801 0.424,1.636 0.46,2.48c1.365,-1.599 3.358,-2.53 5.46,-2.55c5.87,0 8.81,4 8.81,15.25c0,11.86 -3.4,15.88 -9.9,15.88c-1.349,0.044 -2.672,-0.384 -3.74,-1.21l0,10.54l-8.17,1l0,-40.53Zm13.29,14.79c0,-7.89 -0.86,-9.44 -2.82,-9.44c-0.915,0.015 -1.77,0.465 -2.3,1.21l0,17.09c0.522,0.594 1.279,0.93 2.07,0.92c2.22,0 3.09,-1.27 3.09,-9.78l-0.04,0Z" style="fill:#fff;fill-rule:nonzero;"/><path d="M175.34,68.89c0,-10.07 4,-15.65 10.76,-15.65c7,0 10.13,4.32 10.13,14.79l0,3.51l-12.89,0c0.17,5 1.5,6.68 4.49,6.68c2.064,-0.081 4.021,-0.947 5.47,-2.42l2.93,5.41c-2.591,2.137 -5.873,3.26 -9.23,3.16c-7.86,0 -11.66,-4.89 -11.66,-15.48Zm13.29,-2.42c0,-6.16 -0.58,-7.6 -2.42,-7.6c-2,0 -2.76,1.61 -2.88,7.6l5.3,0Z" style="fill:#fff;fill-rule:nonzero;"/><path d="M198.59,54.16l7.08,-0.86c0.301,0.95 0.437,1.944 0.4,2.94c1.562,-1.952 3.951,-3.063 6.45,-3c4.32,0 7,2.36 7,7.37l0,23.07l-8.17,0l0,-21.24c0,-2.13 -0.52,-2.82 -2,-2.82c-0.991,0.037 -1.926,0.473 -2.59,1.21l0,22.85l-8.17,0l0,-29.52Z" style="fill:#fff;fill-rule:nonzero;"/><path d="M222.82,43.57l10.53,0c10.13,0 14.45,6 14.45,19.51c0,13.7 -4.6,20.6 -14.1,20.6l-10.88,0l0,-40.11Zm10.3,33.61c4.37,0 5.47,-2.42 5.47,-14.21c0,-10.53 -1,-12.95 -5.64,-12.95l-1.5,0l0,27.16l1.67,0Z" style="fill:#fff;fill-rule:nonzero;"/><path d="M261.72,81.66c-1.032,1.825 -3.028,2.901 -5.12,2.76c-4.43,0 -7.77,-2.88 -7.77,-8.75c0,-7 3.63,-9.38 9.9,-9.38c0.81,-0.004 1.619,0.052 2.42,0.17l0,-3.84c0,-2.19 -1.21,-2.88 -3,-2.88c-2.113,0.06 -4.16,0.757 -5.87,2l-2.65,-5.74c3.014,-1.826 6.476,-2.782 10,-2.76c6.45,0 9.55,2.65 9.55,8.17l0,16.05c-0.101,1.783 0.243,3.563 1,5.18l-7,1.9c-0.86,-0.72 -1.388,-1.761 -1.46,-2.88Zm-0.58,-3.86l0,-7.24c-0.436,-0.079 -0.877,-0.119 -1.32,-0.12c-2.42,0 -3.51,1 -3.51,4.72c0,3.34 0.86,4.32 2.53,4.32c1.041,-0.013 1.966,-0.684 2.3,-1.67l0,-0.01Z" style="fill:#fff;fill-rule:nonzero;"/><path d="M272.83,77.35l0,-17.78l-2,0l0,-5.57l2.3,0c-0.052,-2.477 0.044,-4.955 0.29,-7.42l7.6,-1.15l0,8.57l4,0l-0.11,5.58l-3.91,0l0,16.42c0,1.84 0.34,2.36 1.84,2.36c0.716,0.003 1.423,-0.154 2.07,-0.46l0.63,5.47c-1.743,0.738 -3.629,1.079 -5.52,1c-4.84,0.06 -7.19,-2.13 -7.19,-7.02Z" style="fill:#fff;fill-rule:nonzero;"/><path d="M299.7,81.66c-1.032,1.825 -3.028,2.901 -5.12,2.76c-4.43,0 -7.77,-2.88 -7.77,-8.75c0,-7 3.63,-9.38 9.9,-9.38c0.81,-0.004 1.619,0.052 2.42,0.17l0,-3.84c0,-2.19 -1.21,-2.88 -3,-2.88c-2.113,0.06 -4.16,0.757 -5.87,2l-2.65,-5.74c3.014,-1.826 6.476,-2.782 10,-2.76c6.45,0 9.55,2.65 9.55,8.17l0,16.05c-0.101,1.783 0.243,3.563 1,5.18l-7,1.9c-0.86,-0.72 -1.388,-1.761 -1.46,-2.88Zm-0.58,-3.86l0,-7.24c-0.436,-0.079 -0.877,-0.119 -1.32,-0.12c-2.42,0 -3.51,1 -3.51,4.72c0,3.34 0.86,4.32 2.53,4.32c1.041,-0.013 1.966,-0.684 2.3,-1.67l0,-0.01Z" style="fill:#fff;fill-rule:nonzero;"/><path d="M308.56,81.43l2.76,-6.43c1.972,1.578 4.388,2.505 6.91,2.65c3.05,0 4.78,-1.84 4.78,-5.41c0,-2.93 -1.09,-4.26 -4.2,-5.18l-1,-0.29c-5.06,-1.5 -8.11,-4.14 -8.11,-11.8c0,-7.66 4.09,-12.14 11.63,-12.14c3.492,-0.118 6.928,0.912 9.78,2.93l-3.28,6.27c-1.596,-1.54 -3.713,-2.426 -5.93,-2.48c-2.65,0 -4,1.84 -4,4.55c0,2.71 0.75,4 3.63,4.95l1,0.29c6,1.73 8.92,4.89 8.92,11.57c0,8.58 -4.2,13.41 -12.49,13.41c-4.24,0.05 -8.38,-1.32 -10.4,-2.89Z" style="fill:#fff;fill-rule:nonzero;"/><path d="M332.79,68.95c0,-10.53 4.2,-15.71 11.34,-15.71c7.14,0 11.11,4.89 11.11,15c0,11.11 -3.86,16.11 -11.28,16.11c-7.2,0.02 -11.17,-4.93 -11.17,-15.4Zm14,-0.58c0,-7.88 -0.75,-9.44 -2.71,-9.44c-1.96,0 -2.78,2.07 -2.78,9.79c0,8.11 0.75,10 2.7,10c1.95,0 2.77,-2.23 2.77,-10.35l0.02,0Z" style="fill:#fff;fill-rule:nonzero;"/><path d="M372,77.35l0,-17.78l-5.52,0l0,24.11l-8.17,0l0,-24.11l-2.07,0l0,-5.57l2,0l0,-4.74c0,-5.47 2.24,-7.77 7.6,-7.77c1.813,-0.035 3.614,0.306 5.29,1l-1.15,5.64c-0.503,-0.306 -1.081,-0.466 -1.67,-0.46c-1.32,0 -2,0.75 -2,2.42l0,3.91l6,0c-0.052,-2.477 0.045,-4.955 0.29,-7.42l7.6,-1.15l0,8.57l4,0l-0.12,5.58l-3.91,0l0,16.42c0,1.84 0.35,2.36 1.84,2.36c0.716,0.003 1.423,-0.154 2.07,-0.46l0.63,5.47c-1.743,0.738 -3.629,1.079 -5.52,1c-4.85,0.06 -7.19,-2.13 -7.19,-7.02Z" style="fill:#fff;fill-rule:nonzero;"/><g><path d="M267.11,129.59l6,0l0,-12.48l4.48,0l0,12.48l6,0l0,-27.88l-6,0l0,10.88l-4.48,0l0,-10.88l-6,0l0,27.88Z" style="fill:#52e899;fill-rule:nonzero;"/><path d="M291.15,117.63c0.08,-4.16 0.6,-5.28 2,-5.28c1.28,0 1.68,1 1.68,5.28l-3.68,0Zm2.56,12.44c2.64,0 4.6,-0.76 6.4,-2.2l-2.04,-3.76c-1.04,0.96 -2.32,1.68 -3.8,1.68c-2.08,0 -3,-1.16 -3.12,-4.64l8.96,0l0,-2.44c0,-7.28 -2.16,-10.28 -7.04,-10.28c-4.72,0 -7.48,3.88 -7.48,10.88c0,7.36 2.64,10.76 8.12,10.76Z" style="fill:#52e899;fill-rule:nonzero;"/><path d="M306.23,130.03c1.68,0 2.48,-0.2 3.16,-0.48c-0.12,-1.2 -0.4,-3.68 -0.4,-3.72c-0.16,0.08 -0.32,0.12 -0.52,0.12c-0.72,0 -0.84,-0.28 -0.84,-1.72l0,-19.52c0,-1.68 -0.08,-2.96 -0.36,-3.92l-5.32,0.64l0,23.92c0,3.36 1.28,4.68 4.28,4.68Z" style="fill:#52e899;fill-rule:nonzero;"/><path d="M317.79,126.15c-0.64,0 -1.12,-0.28 -1.44,-0.64l0,-11.88c0.36,-0.48 0.92,-0.84 1.6,-0.84c1.36,0 1.96,1.08 1.96,6.56c0,5.92 -0.6,6.8 -2.12,6.8Zm-7.12,11.08l5.68,-0.68l0,-7.32c0.6,0.48 1.44,0.84 2.6,0.84c4.52,0 6.88,-2.8 6.88,-11.04c0,-7.8 -2.04,-10.6 -6.12,-10.6c-1.72,0 -3.04,0.88 -3.8,1.76c-0.04,-0.64 -0.16,-1.32 -0.32,-1.72l-4.92,0.6l0,28.16Z" style="fill:#52e899;fill-rule:nonzero;"/><path d="M333.27,129.59l6,0l0,-12.48l4.48,0l0,12.48l6,0l0,-27.88l-6,0l0,10.88l-4.48,0l0,-10.88l-6,0l0,27.88Z" style="fill:#52e899;fill-rule:nonzero;"/><path d="M357.07,130.07c2.2,0 3.48,-0.92 4.48,-2.08c0,0.88 0.12,1.64 0.28,2.04l4.92,-0.6l0,-20.84l-5.68,0.52l0,15.68c-0.44,0.48 -1.12,0.88 -1.8,0.88c-1.04,0 -1.4,-0.52 -1.4,-1.96l0,-15.12l-5.68,0.52l0,15.84c0,3.48 1.84,5.12 4.88,5.12Z" style="fill:#52e899;fill-rule:nonzero;"/><path d="M376.23,126.15c-0.64,0 -1.12,-0.28 -1.44,-0.64l0,-11.88c0.36,-0.48 0.92,-0.84 1.6,-0.84c1.36,0 1.96,1.08 1.96,6.56c0,5.92 -0.6,6.8 -2.12,6.8Zm1.72,3.92c3.96,0 6.32,-2.8 6.32,-11.04c0,-7.8 -2.04,-10.6 -6.12,-10.6c-1.64,0 -2.8,0.84 -3.36,1.64l0,-5.36c0,-1.68 -0.12,-2.96 -0.36,-3.92l-5.32,0.64l0,28.16l5,0c0.08,-0.28 0.12,-0.6 0.16,-0.96c0.8,0.84 2.2,1.44 3.68,1.44Z" style="fill:#52e899;fill-rule:nonzero;"/></g><path d="M254.721,116.572l-19.612,0c-0.055,0.003 -0.108,0.006 -0.162,0.006c-0.852,0 -1.554,-0.482 -1.554,-1.066c0,-0.585 0.702,-1.066 1.554,-1.066c0.054,0 0.107,0.003 0.162,0.006l19.612,0c0.055,-0.003 0.108,-0.006 0.162,-0.006c0.852,0 1.554,0.481 1.554,1.066c0,0.584 -0.702,1.066 -1.554,1.066c-0.054,0 -0.107,-0.003 -0.162,-0.006Z" style="fill:#52e899;fill-rule:nonzero;"/><path d="M238.543,124.601l11.002,-19.33c0.027,-0.056 0.054,-0.11 0.085,-0.163c0.478,-0.84 1.318,-1.27 1.86,-0.952c0.542,0.317 0.596,1.27 0.118,2.11c-0.031,0.054 -0.063,0.105 -0.097,0.157l-11.002,19.33c-0.027,0.056 -0.054,0.109 -0.085,0.163c-0.478,0.84 -1.318,1.269 -1.86,0.952c-0.542,-0.318 -0.596,-1.271 -0.118,-2.11c0.031,-0.054 0.063,-0.105 0.097,-0.157Z" style="fill:#52e899;fill-rule:nonzero;"/><path d="M249.545,126.352l-11.002,-19.331c-0.034,-0.052 -0.066,-0.102 -0.097,-0.156c-0.478,-0.84 -0.424,-1.793 0.118,-2.11c0.542,-0.318 1.382,0.112 1.86,0.951c0.031,0.054 0.058,0.108 0.085,0.163l11.002,19.331c0.034,0.052 0.066,0.103 0.097,0.157c0.478,0.839 0.424,1.792 -0.118,2.11c-0.542,0.317 -1.382,-0.113 -1.86,-0.952c-0.031,-0.054 -0.058,-0.107 -0.085,-0.163Z" style="fill:#52e899;fill-rule:nonzero;"/><ellipse cx="233.393" cy="115.512" rx="3.462" ry="3.512" style="fill:#52e899;"/><ellipse cx="256.437" cy="115.512" rx="3.462" ry="3.512" style="fill:#52e899;"/><ellipse cx="250.783" cy="126.233" rx="3.462" ry="3.512" style="fill:#52e899;"/><ellipse cx="250.783" cy="105.821" rx="3.462" ry="3.512" style="fill:#52e899;"/><ellipse cx="239.274" cy="105.821" rx="3.462" ry="3.512" style="fill:#52e899;"/><ellipse cx="239.274" cy="126.233" rx="3.462" ry="3.512" style="fill:#52e899;"/><ellipse cx="244.915" cy="115.512" rx="5.193" ry="5.268" style="fill:#52e899;"/></g></svg>