<svg xmlns="http://www.w3.org/2000/svg" viewBox="0 0 400 280"><defs><style>.cls-1{fill:#F88611;}.cls-2{fill:#0b81a3;}.cls-3{fill:#fff;}</style></defs><title>ODS</title><g id="Calque_4" data-name="Calque 4"><rect class="cls-1" x="200.7" y="39.32" width="90.53" height="90.53" rx="8.14" ry="8.14" transform="translate(491.92 169.17) rotate(-180)"/><path class="cls-1" d="M259.78,154.65V128.36H232.14L258.83,155A.56.56,0,0,0,259.78,154.65Z"/><rect class="cls-2" x="108.78" y="97.62" width="115.18" height="115.18" rx="10.36" ry="10.36"/><path class="cls-2" d="M148.79,244.35V210.91h35.16L150,244.85A.71.71,0,0,1,148.79,244.35Z"/><path class="cls-3" d="M158.88,165.82c-.21-19.12,12-19.34,12-28,0-4.36-2.76-6.06-6.37-6.06a12.61,12.61,0,0,0-9.14,4l-6.16-11.16c4.14-3.93,10.41-6.59,18.06-6.59,11.58,0,19.55,6.38,19.55,17.74,0,19.44-15.94,15.72-15,32.09l.21,2.66h-13A33.75,33.75,0,0,1,158.88,165.82ZM157,186a8.53,8.53,0,0,1,8.71-8.61,8.38,8.38,0,0,1,8.5,8.71c0,4.78-3.72,8.39-8.82,8.39A8.18,8.18,0,0,1,157,186Z"/></g></svg>