<svg xmlns="http://www.w3.org/2000/svg" viewBox="0 0 400 280"><defs><style>.cls-1{isolation:isolate;}.cls-2,.cls-8{fill:#0b81a3;}.cls-3,.cls-9{fill:#dfe6ed;}.cls-4{fill:#fff;}.cls-5{fill:#106e84;}.cls-6{fill:#52e899;}.cls-7{fill:#ff9810;}.cls-8{opacity:0.32;}.cls-8,.cls-9{mix-blend-mode:multiply;}.cls-9{opacity:0.35;}</style></defs><title>ODS</title><g class="cls-1"><g id="Calque_1" data-name="Calque 1"><path class="cls-2" d="M259.69,39.63a3.91,3.91,0,0,0-3.91-3.91H102.7a3.91,3.91,0,0,0-3.91,3.91V62.5h160.9ZM108.6,53.52A4.42,4.42,0,1,1,113,49.11,4.42,4.42,0,0,1,108.6,53.52Zm15.74,0a4.42,4.42,0,1,1,4.42-4.42A4.42,4.42,0,0,1,124.34,53.52Zm15.74,0a4.42,4.42,0,1,1,4.42-4.42A4.42,4.42,0,0,1,140.09,53.52Zm113.43,0H152.71V44.69h100.8Z"/><path class="cls-3" d="M98.79,198.66a3.91,3.91,0,0,0,3.91,3.91H216.86l7.47-35.81,35.35-5.51V62.5H98.79Z"/><rect class="cls-4" x="152.71" y="44.69" width="100.8" height="8.83"/><circle class="cls-5" cx="140.1" cy="49.09" r="4.42"/><circle class="cls-6" cx="124.34" cy="49.09" r="4.42"/><circle class="cls-7" cx="108.6" cy="49.09" r="4.42"/><rect class="cls-2" x="108.6" y="119.23" width="15.58" height="4.67"/><rect class="cls-2" x="108.6" y="130.97" width="15.58" height="4.67"/><rect class="cls-2" x="212.43" y="130.97" width="15.58" height="4.67"/><rect class="cls-2" x="108.6" y="142.7" width="15.58" height="4.67"/><rect class="cls-7" x="192.2" y="142.7" width="15.58" height="4.67"/><rect class="cls-2" x="108.6" y="154.46" width="15.58" height="4.67"/><rect class="cls-2" x="108.6" y="166.21" width="15.58" height="4.67"/><rect class="cls-2" x="108.6" y="177.94" width="15.58" height="4.67"/><rect class="cls-2" x="108.6" y="189.69" width="15.58" height="4.67"/><rect class="cls-2" x="164.82" y="119.23" width="15.58" height="4.67"/><rect class="cls-6" x="197.2" y="119.23" width="15.58" height="4.67"/><rect class="cls-6" x="148.76" y="130.97" width="40.77" height="4.67"/><rect class="cls-2" x="132.8" y="142.7" width="45.29" height="4.67"/><rect class="cls-6" x="148.03" y="154.46" width="15.58" height="4.67"/><rect class="cls-7" x="132.8" y="166.21" width="15.58" height="4.67"/><rect class="cls-2" x="164.82" y="166.21" width="15.58" height="4.67"/><rect class="cls-2" x="132.8" y="177.94" width="15.58" height="4.67"/><rect class="cls-7" x="132.8" y="189.69" width="45.29" height="4.67"/><path class="cls-2" d="M275.5,146.28l-9.24,9.24a47.16,47.16,0,0,0-6.91-2.77l.08-13a2.17,2.17,0,0,0-2.2-2.2l-18.7,0a2.23,2.23,0,0,0-2.23,2.25l-.13,13.2a54,54,0,0,0-7.21,3.06l-9.24-9.24c-.87-.87-2.27-1.37-3.15-.49L203.34,159.6c-.87.87,0,1.86.9,2.74l9.24,9.24c-2.56,3.64-2.52,5-3.25,7.41l-13.23.17a2.37,2.37,0,0,0-2.32,2.32l0,18.76a2.25,2.25,0,0,0,2.22,2.26l12.91-.15a47.37,47.37,0,0,0,2.75,6.93l-9.24,9.24c-.88.88.18,1.87,1.06,2.74l13.24,13.24c.88.88,1.87,1.93,2.74,1.06l9.24-9.24a47.32,47.32,0,0,0,6.93,2.77l-.08,13a2.17,2.17,0,0,0,2.2,2.2l18.7,0a2.23,2.23,0,0,0,2.23-2.25l.33-13.41c2.42-.73,3.77-.69,7.4-3.26l9.24,9.24c.88.88,1.86,1.77,2.74.9l13.24-13.24c.88-.88.39-2.27-.49-3.15l-9.24-9.24a52.14,52.14,0,0,0,3.06-7.21l13.13-.06a2.29,2.29,0,0,0,2.27-2.27l0-18.73a2.24,2.24,0,0,0-2.23-2.25l-12.91.15a47.3,47.3,0,0,0-2.77-6.92l9.24-9.24c.87-.87.23-2.27-.65-3.15l-13.24-13.24C277.78,146.05,276.38,145.4,275.5,146.28Zm-13.75,59.16a19.46,19.46,0,1,1,0-27.52A19.46,19.46,0,0,1,261.76,205.44Z"/><path class="cls-8" d="M247.91,172.22V137.55l-9.39,0a2.23,2.23,0,0,0-2.23,2.25l-.13,13.2a54,54,0,0,0-7.21,3.06l-9.24-9.24c-.87-.87-2.27-1.37-3.15-.49L203.34,159.6c-.87.87,0,1.86.9,2.74l9.24,9.24c-2.56,3.64-2.52,5-3.25,7.41l-13.23.17a2.37,2.37,0,0,0-2.32,2.32l0,18.76a2.25,2.25,0,0,0,2.22,2.26l12.91-.15a47.37,47.37,0,0,0,2.75,6.93l-9.24,9.24c-.88.88.18,1.87,1.06,2.74l13.24,13.24c.88.88,1.87,1.93,2.74,1.06l9.24-9.24a47.32,47.32,0,0,0,6.93,2.77l-.08,13a2.17,2.17,0,0,0,2.2,2.2l9.33,0,.09-33.12c-6,0-9.31-.95-13.76-5.7-7.66-8.18-7.56-18.88-.91-26.54,4.25-4.9,8.58-6.65,14.58-6.67"/><path class="cls-9" d="M179.21,62.5H98.79V198.66a3.91,3.91,0,0,0,3.91,3.91h76.57"/><path class="cls-2" d="M157.91,97.77l-1.37,7.15h-6.27l6.58-30.76h8.47l6.18,30.76H164.4l-1.28-7.15ZM162.68,93l-.62-3.57c-.57-3.31-1.15-6.31-1.41-8.78-.31,2.43-.88,5.47-1.5,8.74L158.44,93Z"/><path class="cls-2" d="M177.33,74.16h8.3c6.49,0,9.4,3,9.4,9.58,0,6.18-3.18,9.8-9.18,9.8h-1.9v11.39h-6.62Zm8.08,14.79c2.43,0,3.22-1.54,3.22-5.16,0-3.4-.75-4.9-3.22-4.9h-1.59V88.95Z"/><path class="cls-2" d="M201.65,74.16h6.62v30.76h-6.62Z"/></g></g></svg>