<svg xmlns="http://www.w3.org/2000/svg" viewBox="0 0 400 280"><defs><style>.cls-1{isolation:isolate;}.cls-2{fill:#0b81a3;}.cls-3,.cls-8{fill:#dfe6ed;}.cls-4{fill:#fff;}.cls-5{fill:#106e84;}.cls-6{fill:#52e899;}.cls-7{fill:#ff9810;}.cls-8{opacity:0.35;mix-blend-mode:multiply;}</style></defs><title>ODS</title><g class="cls-1"><g id="Calque_4" data-name="Calque 4"><path class="cls-2" d="M280.45,60.48a3.91,3.91,0,0,0-3.91-3.91H123.46a3.91,3.91,0,0,0-3.91,3.91V83.36h160.9ZM129.36,74.38A4.42,4.42,0,1,1,133.78,70,4.42,4.42,0,0,1,129.36,74.38Zm15.74,0A4.42,4.42,0,1,1,149.52,70,4.42,4.42,0,0,1,145.1,74.38Zm15.74,0A4.42,4.42,0,1,1,165.27,70,4.42,4.42,0,0,1,160.85,74.38Zm113.43,0H173.48V65.55h100.8Z"/><path class="cls-3" d="M119.55,219.52a3.91,3.91,0,0,0,3.91,3.91H276.54a3.91,3.91,0,0,0,3.91-3.91V83.36H119.55Z"/><rect class="cls-4" x="173.48" y="65.55" width="100.8" height="8.83"/><circle class="cls-5" cx="160.86" cy="69.95" r="4.42"/><circle class="cls-6" cx="145.1" cy="69.95" r="4.42"/><circle class="cls-7" cx="129.36" cy="69.95" r="4.42"/><path class="cls-8" d="M200,83.36H119.55V219.52a3.91,3.91,0,0,0,3.91,3.91H200"/><polygon class="cls-2" points="199.11 177.99 217.79 181.01 217.79 161.47 198.23 158.71 199.11 177.99"/><polygon class="cls-2" points="200.21 202.28 217.8 205.55 217.79 188.33 199.44 185.24 200.21 202.28"/><polygon class="cls-2" points="171.28 146.95 190.11 149.45 188.74 127.58 169.02 125.41 171.28 146.95"/><polygon class="cls-2" points="146.12 143.6 163.95 145.98 161.36 124.56 142.75 122.51 146.12 143.6"/><polygon class="cls-2" points="174.11 173.96 191.83 176.82 190.63 157.63 172.13 155.02 174.11 173.96"/><polygon class="cls-2" points="232.83 147.51 223.78 152.6 224.08 130.34 233.55 125.98 232.83 147.51"/><polygon class="cls-2" points="231.92 174.51 223.4 180.39 223.66 160.91 232.56 155.57 231.92 174.51"/><polygon class="cls-2" points="244.29 141.07 236.24 145.59 237.11 124.35 245.5 120.5 244.29 141.07"/><polygon class="cls-2" points="197.86 150.48 217.79 153.13 217.78 130.78 196.86 128.47 197.86 150.48"/><polygon class="cls-2" points="209.29 119.01 229.56 121.01 219.83 125.15 198.85 122.97 209.29 119.01"/><polygon class="cls-2" points="222.46 114 241.79 115.79 233.2 119.46 213.21 117.51 222.46 114"/><polygon class="cls-2" points="234.2 109.55 252.67 111.15 245.03 114.41 225.95 112.67 234.2 109.55"/><polygon class="cls-2" points="182.26 116.33 201.41 118.22 190.71 122.12 170.93 120.06 182.26 116.33"/><polygon class="cls-2" points="196.53 111.6 214.85 113.3 205.36 116.75 186.45 114.91 196.53 111.6"/><polygon class="cls-2" points="156.69 113.79 174.81 115.59 163.25 119.26 144.58 117.31 156.69 113.79"/></g></g></svg>