<?xml version="1.0" encoding="UTF-8"?>
<svg width="48px" height="48px" viewBox="0 0 48 48" version="1.1" xmlns="http://www.w3.org/2000/svg" xmlns:xlink="http://www.w3.org/1999/xlink">
    <!-- Generator: sketchtool 54.1 (76490) - https://sketchapp.com -->
    <title>A13344DD-2C61-41F0-A1ED-B4E89F9A8000</title>
    <desc>Created with sketchtool.</desc>
    <g id="Help-hub" stroke="none" stroke-width="1" fill="none" fill-rule="evenodd">
        <g id="Help-Hub_Home" transform="translate(-687.000000, -672.000000)" fill-rule="nonzero">
            <g id="list-cards" transform="translate(277.000000, 119.000000)">
                <g id="card-Tutorials" transform="translate(376.000000, 472.000000)">
                    <g id="ODS_picto_tuto.1132148ea06aa46d3b64eb0d015d6324" transform="translate(34.000000, 81.000000)">
                        <path d="M24,47.76 C10.8777143,47.76 0.24,37.1222856 0.24,24 C0.24,10.8777143 10.8777143,0.24 24,0.24 C37.1222856,0.24 47.76,10.8777143 47.76,24 C47.7451391,37.1161251 37.1161251,47.7451391 24,47.76 Z M24,6.30741573 C14.2286555,6.30741573 6.30741573,14.2286555 6.30741573,24 C6.30741573,33.7713444 14.2286555,41.6925843 24,41.6925843 C33.7713444,41.6925843 41.6925843,33.7713444 41.6925843,24 C41.6806975,14.2335834 33.7664165,6.31930244 24,6.30741573 Z" id="Shape" fill="#0086D6"></path>
                        <path d="M22.3820225,13.4507865 L31.9442697,23.0130337 C32.2065916,23.2750424 32.3539888,23.6305905 32.3539888,24.0013483 C32.3539888,24.3721061 32.2065916,24.7276542 31.9442697,24.9896629 L22.3820225,34.5492135 C21.9828061,34.9500016 21.381277,35.0704422 20.8585271,34.854254 C20.3357772,34.6380661 19.9950262,34.1279366 19.9955056,33.5622472 L19.9955056,14.4404494 C19.9939308,13.8742689 20.3342808,13.3631376 20.8572774,13.1462565 C21.3802741,12.9293754 21.9824601,13.0496471 22.3820225,13.4507865 L22.3820225,13.4507865 Z" id="Path" fill="#00C7B1"></path>
                    </g>
                </g>
            </g>
        </g>
    </g>
</svg>