<?xml version="1.0" encoding="UTF-8" standalone="no"?><!DOCTYPE svg PUBLIC "-//W3C//DTD SVG 1.1//EN" "http://www.w3.org/Graphics/SVG/1.1/DTD/svg11.dtd"><svg width="100%" height="100%" viewBox="0 0 72 71" version="1.1" xmlns="http://www.w3.org/2000/svg" xmlns:xlink="http://www.w3.org/1999/xlink" xml:space="preserve" xmlns:serif="http://www.serif.com/" style="fill-rule:evenodd;clip-rule:evenodd;stroke-linejoin:round;stroke-miterlimit:1.41421;"><g id="g6395"><g id="g6197"><path id="rect6045" d="M71.216,10c0,-5.519 -4.481,-10 -10,-10l-51.216,0c-5.519,0 -10,4.481 -10,10l0,50.458c0,5.519 4.481,10 10,10l51.216,0c5.519,0 10,-4.481 10,-10l0,-50.458Z" style="fill:#d4732f;"/><path id="rect6045-0" d="M69.244,9.719c0,-4.415 -3.584,-8 -8,-8l-51.273,0c-4.415,0 -8,3.585 -8,8l0,51.02c0,4.416 3.585,8 8,8l51.273,0c4.416,0 8,-3.584 8,-8l0,-51.02Z" style="fill:#e57e2a;"/><path id="rect6045-0-9" d="M67.855,10.525c0,-4.233 -3.436,-7.67 -7.669,-7.67l-49.156,0c-4.233,0 -7.67,3.437 -7.67,7.67l0,49.408c0,4.233 3.437,7.67 7.67,7.67l49.156,0c4.233,0 7.669,-3.437 7.669,-7.67l0,-49.408Z" style="fill:url(#_Linear1);"/><path id="path6103" d="M29.8,52.149c0,5.611 -4.617,10.228 -10.228,10.228c-5.611,0 -10.228,-4.617 -10.228,-10.228c0,-5.611 4.617,-10.228 10.228,-10.228c5.611,0 10.228,4.617 10.228,10.228Z" style="fill:#fff;fill-rule:nonzero;"/><g id="g6174"><rect id="rect6105" x="9.66" y="10.607" width="25.001" height="6.566" style="fill:#fff;"/><rect id="rect6105-0" x="9.66" y="20.329" width="25.001" height="6.566" style="fill:#fff;"/><rect id="rect6105-3" x="9.66" y="30.052" width="25.001" height="6.566" style="fill:#fff;"/><rect id="rect6105-03" x="36.744" y="10.48" width="25.001" height="6.566" style="fill:#fff;"/><rect id="rect6105-0-5" x="36.744" y="20.119" width="25.001" height="6.566" style="fill:#fff;"/><rect id="rect6105-3-0" x="36.744" y="29.757" width="25.001" height="6.566" style="fill:#fff;"/><rect id="rect6105-3-0-7" x="36.744" y="39.396" width="25.001" height="6.566" style="fill:#fff;"/></g></g></g><defs><linearGradient id="_Linear1" x1="0" y1="0" x2="1" y2="0" gradientUnits="userSpaceOnUse" gradientTransform="matrix(59.1917,61.1142,-61.1142,59.1917,5.88578,4.92448)"><stop offset="0" style="stop-color:#e4772f;stop-opacity:1"/><stop offset="0.43" style="stop-color:#f69630;stop-opacity:1"/><stop offset="1" style="stop-color:#da6029;stop-opacity:1"/></linearGradient></defs></svg>