<?xml version="1.0" encoding="UTF-8"?>
<svg width="64px" height="66px" viewBox="0 0 64 66" version="1.1" xmlns="http://www.w3.org/2000/svg" xmlns:xlink="http://www.w3.org/1999/xlink">
    <!-- Generator: sketchtool 54.1 (76490) - https://sketchapp.com -->
    <title>72062B7C-EB99-4600-A74A-2844BDE1C0EF</title>
    <desc>Created with sketchtool.</desc>
    <g id="Help-hub" stroke="none" stroke-width="1" fill="none" fill-rule="evenodd">
        <g id="Help-Hub_Home" transform="translate(-303.000000, -663.000000)" fill-rule="nonzero">
            <g id="list-cards" transform="translate(277.000000, 119.000000)">
                <g id="card-APIs" transform="translate(0.000000, 472.000000)">
                    <g id="ODS_picto_api.fb088f604b11ac3cba733f455bc4955b" transform="translate(26.000000, 72.000000)">
                        <path d="M50.7262745,1.45254902 C50.7262745,0.775079727 50.177077,0.225882353 49.4996078,0.225882353 L1.4745098,0.225882353 C0.797040511,0.225882353 0.247843137,0.775079727 0.247843137,1.45254902 L0.247843137,8.62745098 L50.7262745,8.62745098 L50.7262745,1.45254902 Z" id="Shape" fill="#0086D6"></path>
                        <path d="M0.247843137,51.3443137 C0.247843137,52.0217829 0.797040511,52.5709804 1.4745098,52.5709804 L37.2894118,52.5709804 L39.6329412,41.3364706 L50.7231373,39.6078431 L50.7231373,8.62745098 L0.247843137,8.62745098 L0.247843137,51.3443137 Z" id="Path" fill="#DEE5EF"></path>
                        <rect id="Rectangle" fill="#FFFFFF" x="17.1639216" y="3.04" width="31.6235294" height="2.77019608" rx="1"></rect>
                        <circle id="Oval" fill="#FFFFFF" opacity="0.6" cx="13.2078431" cy="4.42039216" r="1.38666667"></circle>
                        <circle id="Oval" fill="#FFFFFF" opacity="0.8" cx="8.26352941" cy="4.42039216" r="1.38666667"></circle>
                        <circle id="Oval" fill="#FFFFFF" cx="3.3254902" cy="4.42039216" r="1.38666667"></circle>
                        <rect id="Rectangle" fill="#CBD2DB" x="3.3254902" y="26.425098" width="4.88784314" height="1.46509804"></rect>
                        <rect id="Rectangle" fill="#CBD2DB" x="3.3254902" y="30.1082353" width="4.88784314" height="1.46509804"></rect>
                        <rect id="Rectangle" fill="#CBD2DB" x="35.8996078" y="30.1082353" width="4.88784314" height="1.46509804"></rect>
                        <rect id="Rectangle" fill="#CBD2DB" x="3.3254902" y="33.7882353" width="4.88784314" height="1.46509804"></rect>
                        <rect id="Rectangle" fill="#0086D6" x="29.5529412" y="33.7882353" width="4.88784314" height="1.46509804"></rect>
                        <rect id="Rectangle" fill="#CBD2DB" x="3.3254902" y="37.4776471" width="4.88784314" height="1.46509804"></rect>
                        <rect id="Rectangle" fill="#CBD2DB" x="3.3254902" y="41.1639216" width="4.88784314" height="1.46509804"></rect>
                        <rect id="Rectangle" fill="#CBD2DB" x="3.3254902" y="44.8439216" width="4.88784314" height="1.46509804"></rect>
                        <rect id="Rectangle" fill="#CBD2DB" x="3.3254902" y="48.5301961" width="4.88784314" height="1.46509804"></rect>
                        <rect id="Rectangle" fill="#CBD2DB" x="20.9631373" y="26.425098" width="4.88784314" height="1.46509804"></rect>
                        <rect id="Rectangle" fill="#00C7B1" x="31.1215686" y="26.425098" width="4.88784314" height="1.46509804"></rect>
                        <rect id="Rectangle" fill="#00C7B1" x="15.9247059" y="30.1082353" width="12.7905882" height="1.46509804"></rect>
                        <rect id="Rectangle" fill="#CBD2DB" x="10.9176471" y="33.7882353" width="14.2086275" height="1.46509804"></rect>
                        <rect id="Rectangle" fill="#00C7B1" x="15.6956863" y="39.4776471" width="4.88784314" height="1.46509804"></rect>
                        <rect id="Rectangle" fill="#0086D6" x="10.9176471" y="41.1639216" width="4.88784314" height="1.46509804"></rect>
                        <rect id="Rectangle" fill="#CBD2DB" x="20.9631373" y="41.1639216" width="4.88784314" height="1.46509804"></rect>
                        <rect id="Rectangle" fill="#CBD2DB" x="10.9176471" y="44.8439216" width="4.88784314" height="1.46509804"></rect>
                        <rect id="Rectangle" fill="#0086D6" x="10.9176471" y="48.5301961" width="14.2086275" height="1.46509804"></rect>
                        <path d="M55.6862745,34.9113725 L52.787451,37.8101961 C52.0888646,37.4638516 51.3639925,37.1732731 50.6196078,36.9411765 L50.6447059,32.8627451 C50.6472653,32.6789211 50.5753707,32.5018761 50.4453747,32.3718802 C50.3153788,32.2418842 50.1383338,32.1699896 49.9545098,32.172549 L44.0878431,32.172549 C43.9012035,32.1725415 43.7222977,32.2471106 43.5909139,32.3796728 C43.4595304,32.512235 43.3865613,32.6917992 43.3882353,32.8784314 L43.347451,37.0196078 C42.5712201,37.2844326 41.8152452,37.6052762 41.0854902,37.9796078 L38.1866667,35.0807843 C37.9137255,34.8078431 37.4745098,34.6509804 37.1984314,34.9270588 L33.0478431,39.0901961 C32.774902,39.3631373 33.0478431,39.6737255 33.3301961,39.9498039 L36.2290196,42.8486275 C35.4258824,43.9905882 35.4384314,44.4172549 35.2094118,45.1733333 L31.0588235,45.2266667 C30.6603447,45.2349882 30.3393021,45.5560311 30.3309804,45.9545098 L30.3309804,51.84 C30.3292241,52.2274231 30.6400583,52.5438579 31.027451,52.5490196 L35.0776471,52.5019608 C35.3076618,53.248208 35.5961368,53.9751649 35.9403922,54.6760784 L33.0415686,57.574902 C32.7654902,57.8509804 33.0980392,58.1615686 33.3741176,58.4345098 L37.5278431,62.5882353 C37.8039216,62.8643137 38.1145098,63.1937255 38.387451,62.9207843 L41.2862745,60.0219608 C41.9869716,60.3684201 42.7139379,60.6589967 43.4603922,60.8909804 L43.4352941,64.9694118 C43.4327347,65.1532358 43.5046293,65.3302808 43.6346253,65.4602767 C43.7646212,65.5902726 43.9416662,65.6621672 44.1254902,65.6596078 L49.9921569,65.6596078 C50.1787965,65.6596154 50.3577023,65.5850463 50.4890861,65.4524841 C50.6204696,65.3199219 50.6934387,65.1403576 50.6917647,64.9537255 L50.7952941,60.7466667 C51.5545098,60.5176471 51.9780392,60.5301961 53.1168627,59.7239216 L56.0156863,62.6227451 C56.2917647,62.8988235 56.5992157,63.1780392 56.8752941,62.905098 L61.0290196,58.7513725 C61.305098,58.4752941 61.1513725,58.0392157 60.8752941,57.7631373 L57.9764706,54.8643137 C58.35273,54.1354623 58.6736351,53.3793427 58.9364706,52.6023529 L63.0556863,52.5835294 C63.4475793,52.5801214 63.7644351,52.2632656 63.7678431,51.8713725 L63.7678431,45.9952941 C63.768677,45.8089139 63.6954365,45.6298365 63.5642344,45.4974573 C63.4330318,45.3650783 63.2546155,45.2902419 63.0682353,45.2894118 L59.0180392,45.3364706 C58.785925,44.5910773 58.49535,43.8651639 58.1490196,43.1654902 L61.0478431,40.2666667 C61.3207843,39.9937255 61.12,39.5545098 60.8439216,39.2784314 L56.6901961,35.1247059 C56.4015686,34.8392157 55.9623529,34.6352941 55.6862745,34.9113725 Z M51.372549,53.4713725 C49.6265239,55.2174733 47.0005917,55.7398478 44.7192405,54.7949101 C42.4378893,53.8499724 40.9504013,51.6238155 40.9504013,49.1545098 C40.9504013,46.6852041 42.4378893,44.4590472 44.7192405,43.5141095 C47.0005917,42.5691718 49.6265239,43.0915464 51.372549,44.8376471 C53.7574802,47.2209484 53.7588847,51.0863385 51.3756863,53.4713725 L51.372549,53.4713725 Z" id="Shape" fill="#00C7B1"></path>
                        <path d="M18.7952941,19.692549 L18.3654902,21.9356863 L16.3984314,21.9356863 L18.4627451,12.2854902 L21.12,12.2854902 L23.0588235,21.9356863 L20.8313725,21.9356863 L20.4298039,19.692549 L18.7952941,19.692549 Z M20.2917647,18.1960784 L20.0972549,17.0760784 C19.9184314,16.0376471 19.7364706,15.0964706 19.654902,14.3215686 C19.5576471,15.0839216 19.3788235,16.0376471 19.1843137,17.0635294 L18.9615686,18.1960784 L20.2917647,18.1960784 Z" id="Shape" fill="#0086D6"></path>
                        <path d="M24.8878431,12.2854902 L27.4917647,12.2854902 C29.5278431,12.2854902 30.4407843,13.2266667 30.4407843,15.2909804 C30.4407843,17.2298039 29.4431373,18.3654902 27.5607843,18.3654902 L26.9647059,18.3654902 L26.9647059,21.9388235 L24.8878431,21.9388235 L24.8878431,12.2854902 Z M27.4227451,16.9254902 C28.185098,16.9254902 28.4329412,16.4423529 28.4329412,15.3066667 C28.4329412,14.24 28.1976471,13.7694118 27.4227451,13.7694118 L26.9239216,13.7694118 L26.9239216,16.9254902 L27.4227451,16.9254902 Z" id="Shape" fill="#0086D6"></path>
                        <polygon id="Path" fill="#0086D6" points="32.5176471 12.2854902 34.5945098 12.2854902 34.5945098 21.9356863 32.5176471 21.9356863"></polygon>
                    </g>
                </g>
            </g>
        </g>
    </g>
</svg>