<?xml version="1.0" encoding="UTF-8"?>
<svg width="64px" height="66px" viewBox="0 0 64 66" version="1.1" xmlns="http://www.w3.org/2000/svg" xmlns:xlink="http://www.w3.org/1999/xlink">
    <!-- Generator: sketchtool 54.1 (76490) - https://sketchapp.com -->
    <title>EAB9CD1C-0E77-46EE-A2AD-E320B3ACCE11</title>
    <desc>Created with sketchtool.</desc>
    <g id="Help-hub" stroke="none" stroke-width="1" fill="none" fill-rule="evenodd">
        <g id="Help-Hub_Home" transform="translate(-303.000000, -191.000000)" fill-rule="nonzero">
            <g id="list-cards" transform="translate(277.000000, 119.000000)">
                <g id="card-user-guide">
                    <g id="ODS_picto_platform.3b592ea4aff75b1d8fd5821c23a5edd9" transform="translate(26.000000, 72.000000)">
                        <path d="M0.395061728,64.4582716 C0.395061728,65.3113809 1.08664361,66.002963 1.93975309,66.002963 L62.4158025,66.002963 C63.2689118,66.002963 63.9604938,65.3113809 63.9604938,64.4582716 L63.9604938,10.6666667 L0.395061728,10.6666667 L0.395061728,64.4582716 Z" id="Path" fill="#DEE5EF"></path>
                        <path d="M26.365812,39.9924026 C26.4995252,39.642925 26.5694207,39.2630579 26.5694207,38.8619183 C26.5694207,38.4577398 26.4995252,38.0778728 26.3597341,37.7223172 C26.219943,37.3667616 26.0254511,37.0567901 25.7732194,36.7924026 C25.5240266,36.5280152 25.2292498,36.3183286 24.8919278,36.1633428 C24.5546059,36.011396 24.1899335,35.9323837 23.7918328,35.9323837 C23.3876543,35.9323837 23.0169041,36.0083571 22.6795821,36.1572649 C22.3422602,36.3061728 22.0566002,36.5128205 21.8195631,36.777208 C21.5825261,37.0415955 21.397151,37.348528 21.2634378,37.7010446 C21.1297246,38.0505223 21.062868,38.4303894 21.062868,38.831529 C21.062868,39.2357075 21.1327635,39.6155745 21.2725546,39.9711301 C21.4123457,40.3266856 21.6037987,40.6336182 21.8499525,40.8949669 C22.0961064,41.1563153 22.3878443,41.362963 22.7251662,41.5149096 C23.0624881,41.6698955 23.4271605,41.745869 23.8252612,41.745869 C24.2294397,41.745869 24.6001899,41.6698955 24.9375119,41.5209877 C25.2748338,41.3720798 25.5635328,41.1684709 25.8036087,40.9071226 C26.0436847,40.6457738 26.2320988,40.3418805 26.365812,39.9924026 L26.365812,39.9924026 Z M34.2579297,39.776638 C34.3794872,39.4788224 34.437227,39.1415005 34.437227,38.7646724 C34.437227,38.3878443 34.3764482,38.0505223 34.2579297,37.7527066 C34.1394112,37.4548908 33.9783476,37.1965812 33.7747388,36.9808167 C33.574169,36.7650522 33.337132,36.5979107 33.0697056,36.4824311 C32.7992403,36.3669516 32.522697,36.3092118 32.2339981,36.3092118 C31.9361823,36.3092118 31.6566002,36.3639126 31.3922127,36.4763533 C31.1278253,36.585755 30.8938272,36.7498575 30.6932574,36.9595442 C30.4926876,37.1722697 30.3316239,37.4305793 30.2161444,37.731434 C30.1006648,38.0353276 30.042925,38.3787274 30.042925,38.7646724 C30.042925,39.1415005 30.1006648,39.4788224 30.2161444,39.782716 C30.3316239,40.0866098 30.4896486,40.3449193 30.6932574,40.5546058 C30.8938272,40.7673316 31.1278253,40.9314339 31.3922127,41.0469136 C31.6566002,41.1623933 31.9361823,41.2201331 32.2339981,41.2201331 C32.522697,41.2201331 32.7992403,41.1623933 33.0697056,41.0469136 C33.337132,40.9314339 33.574169,40.7642923 33.7747388,40.5485282 C33.9753086,40.3327637 34.1363723,40.0744541 34.2579297,39.776638 L34.2579297,39.776638 Z M40.0379868,36.9048433 L40.0379868,36.9352327 C40.0379868,37.2391263 40.4847103,37.3849952 41.3082619,37.6281101 C42.8550807,38.062678 44.0828109,38.5944919 44.0828109,40.1139603 L44.0828109,40.1443496 C44.0828109,41.8643876 42.7973408,42.7578347 40.8888889,42.7578347 C39.5760683,42.7578347 38.2754036,42.3810066 37.1905033,41.6030388 L38.2176638,39.9407407 C39.11415,40.5333333 40.0957266,40.8372271 40.9040838,40.8372271 C41.3811966,40.8372271 41.5969612,40.691358 41.5969612,40.4178536 L41.5969612,40.3874643 C41.5969612,40.0835706 41.1623933,39.9559356 40.3418805,39.7249762 C38.7950617,39.3207977 37.5673314,38.8011396 37.5673314,37.2239316 L37.5673314,37.1965812 C37.5673314,35.534283 38.8983856,34.6104463 40.7035137,34.6104463 C41.8431151,34.6104463 43.0283002,34.9416904 43.9247862,35.5190883 L42.9857549,37.2512821 C42.1773977,36.8045584 41.2961063,36.5280152 40.6731243,36.5280152 C40.2537513,36.5280152 40.0379868,36.6860399 40.0379868,36.9048433 L40.0379868,36.9048433 Z M36.1724597,42.5815763 L34.4098765,42.5815763 L34.4098765,41.3082619 C34.1302944,41.7033237 33.7838556,42.0406459 33.3644824,42.320228 C32.9451092,42.59981 32.42849,42.739601 31.8146249,42.739601 C31.3618234,42.739601 30.9242165,42.654511 30.5018044,42.4812915 C30.0793922,42.3080723 29.7025641,42.0497628 29.3773979,41.7094017 C29.0522317,41.369041 28.7848053,40.9496676 28.5842355,40.4573598 C28.3836657,39.965052 28.2803419,39.402849 28.2803419,38.7677113 C28.2803419,38.1325736 28.3775878,37.5673314 28.5751187,37.0780627 C28.7726496,36.585755 29.0339981,36.1694207 29.3622032,35.8290598 C29.6904084,35.48566 30.0672365,35.2303894 30.4957265,35.05717 C30.9242165,34.8839506 31.3618234,34.7958215 31.8146249,34.7958215 C32.4406458,34.7958215 32.9572649,34.9295347 33.3705603,35.2 C33.7838556,35.4704653 34.1302944,35.7834758 34.4098765,36.1390313 L34.4098765,32.0303894 L36.1724597,32.0303894 L36.1724597,42.5815763 Z M27.7120608,38.8376068 C27.7120608,39.3663817 27.6117759,39.8708452 27.414245,40.3479581 C27.2167142,40.8250714 26.9432099,41.2414056 26.5967711,41.5969612 C26.2503324,41.9525167 25.837037,42.2351376 25.3538462,42.4417853 C24.8706553,42.648433 24.3509971,42.751757 23.7918328,42.751757 C23.2326686,42.751757 22.7160494,42.648433 22.2450142,42.4417853 C21.7739791,42.2351376 21.3637227,41.9555556 21.017284,41.6030388 C20.6708452,41.2505225 20.4003799,40.8402659 20.2089269,40.3661918 C20.0174739,39.8951565 19.9202279,39.3937322 19.9202279,38.8619183 C19.9202279,38.3331434 20.0174739,37.82868 20.2089269,37.3515669 C20.4003799,36.8744539 20.6708452,36.4581197 21.017284,36.1025641 C21.3637227,35.7470086 21.777018,35.4643875 22.254131,35.2577398 C22.731244,35.0510921 23.2539411,34.9477683 23.8222222,34.9477683 C24.3813865,34.9477683 24.8980057,35.0510921 25.3751187,35.2577398 C25.8522317,35.4643875 26.2624881,35.7439696 26.6119658,36.0964862 C26.9614435,36.4490029 27.2288699,36.8592593 27.4203229,37.3333333 C27.6148148,37.8074074 27.7120608,38.3088319 27.7120608,38.8376068 L27.7120608,38.8376068 Z M47.8024691,38.3209877 C47.8024691,29.5931624 40.7278254,22.5185185 32,22.5185185 C23.2721747,22.5185185 16.1975309,29.5931624 16.1975309,38.3209877 C16.1975309,47.048813 23.2721747,54.1234568 32,54.1234568 C40.7278254,54.1234568 47.8024691,47.048813 47.8024691,38.3209877 L47.8024691,38.3209877 Z" id="Shape" fill="#00C7B1"></path>
                        <path d="M63.782716,1.76987654 C63.782716,0.916767064 63.091134,0.225185185 62.2380247,0.225185185 L1.76197531,0.225185185 C0.908865829,0.225185185 0.217283951,0.916767064 0.217283951,1.76987654 L0.217283951,10.8088889 L63.782716,10.8088889 L63.782716,1.76987654 Z" id="Shape" fill="#0086D6"></path>
                        <rect id="Rectangle" fill="#FFFFFF" x="21.522963" y="3.77283951" width="39.8222222" height="3.48839506" rx="1"></rect>
                        <circle id="Oval" fill="#FFFFFF" opacity="0.5" cx="16.537284" cy="5.51111111" r="1.74617284"></circle>
                        <circle id="Oval" fill="#FFFFFF" opacity="0.8" cx="10.3111111" cy="5.51111111" r="1.74617284"></circle>
                        <circle id="Oval" fill="#FFFFFF" cx="4.09283951" cy="5.51111111" r="1.74617284"></circle>
                    </g>
                </g>
            </g>
        </g>
    </g>
</svg>