<svg xmlns="http://www.w3.org/2000/svg" viewBox="0 0 400 280"><defs><style>.cls-1{fill:#0b81a3;}.cls-2{fill:#F88611;}.cls-3{fill:#fafafa;}.cls-4{fill:none;stroke:#fafafa;stroke-linecap:round;stroke-linejoin:round;stroke-width:12.39px;}</style></defs><title>ODS</title><g id="Calque_4" data-name="Calque 4"><rect class="cls-1" x="130.91" y="71.25" width="137.51" height="137.51" rx="12.37" ry="12.37"/><path class="cls-2" d="M320.52,208.15H305.76a20.23,20.23,0,0,1-20.2-20.2V92.06a20.23,20.23,0,0,1,20.2-20.2h14.76a9.69,9.69,0,1,1,0,19.38H305.76a.83.83,0,0,0-.83.83v95.89a.83.83,0,0,0,.83.83h14.76a9.69,9.69,0,1,1,0,19.38Z"/><path class="cls-2" d="M94.24,208.15H79.48a9.69,9.69,0,0,1,0-19.38H94.24a.83.83,0,0,0,.83-.83V92.06a.83.83,0,0,0-.83-.83H79.48a9.69,9.69,0,0,1,0-19.38H94.24a20.23,20.23,0,0,1,20.2,20.2v95.89A20.23,20.23,0,0,1,94.24,208.15Z"/><path class="cls-3" d="M224.27,126.45a6.16,6.16,0,0,1,0-8.22,5.3,5.3,0,0,1,7.92,0L252.12,140l-19.94,21.76a5.3,5.3,0,0,1-7.92,0,6.16,6.16,0,0,1,0-8.22L236.68,140Z"/><path class="cls-3" d="M175.73,153.55a6.16,6.16,0,0,1,0,8.22,5.3,5.3,0,0,1-7.92,0L147.88,140l19.94-21.76a5.3,5.3,0,0,1,7.92,0,6.16,6.16,0,0,1,0,8.22L163.32,140Z"/><line class="cls-4" x1="189.21" y1="163.54" x2="210.79" y2="120.39"/></g></svg>