<svg width="100" height="101" viewBox="0 0 100 101" fill="none" xmlns="http://www.w3.org/2000/svg">
<path d="M50 97.5412C76.2335 97.5412 97.5 76.2747 97.5 50.0412C97.5 23.8077 76.2335 2.5412 50 2.5412C23.7665 2.5412 2.5 23.8077 2.5 50.0412C2.5 76.2747 23.7665 97.5412 50 97.5412Z" fill="black"/>
<path d="M13.1875 51.5232V51.4377C13.1875 45.296 17.9803 40.0852 24.54 40.0852C31.057 40.0852 35.8545 45.2152 35.8545 51.357V51.4425C35.8545 57.5842 31.019 62.795 24.4545 62.795C17.9423 62.795 13.1875 57.665 13.1875 51.5232ZM32.5343 51.5232V51.4377C32.5343 46.7685 29.043 42.94 24.4593 42.94C19.7473 42.94 16.5125 46.7685 16.5125 51.3522V51.4377C16.5125 56.107 19.961 59.8927 24.5448 59.8927C29.252 59.8927 32.5343 56.107 32.5343 51.5232Z" fill="white"/>
<path d="M40.1628 51.2287V51.1432C40.1628 43.7855 45.1645 39.6197 50.4655 39.6197C54.123 39.6197 56.4362 41.4295 58.037 43.529V31.5875H63.1243V62.2867H58.037V58.5912C56.3982 60.9045 54.085 62.7522 50.4655 62.7522C45.25 62.7522 40.1628 58.5912 40.1628 51.2287ZM58.1177 51.2287V51.1432C58.1177 46.854 55.0872 44.0372 51.6815 44.0372C48.1902 44.0372 45.288 46.7685 45.288 51.1432V51.2287C45.288 55.518 48.233 58.3347 51.6815 58.3347C55.0872 58.3347 58.1177 55.4752 58.1177 51.2287Z" fill="white"/>
<path d="M66.796 59.3845L69.7837 54.5917C72.3915 56.316 75.2082 57.1995 77.5642 57.1995C78.9512 57.1995 79.6257 56.7767 79.6257 55.9787V55.8932C79.6257 54.967 78.3195 54.587 75.9255 53.9172C71.4272 52.7392 67.8505 51.224 67.8505 46.683V46.5975C67.8505 41.762 71.7217 39.0687 76.9752 39.0687C80.3002 39.0687 83.7487 40.0377 86.3565 41.7192L83.6205 46.7637C81.2645 45.4195 78.6995 44.6215 76.8897 44.6215C75.669 44.6215 75.0373 45.0822 75.0373 45.7567V45.8422C75.0373 46.7257 76.3815 47.1437 78.7375 47.861C83.2357 49.1245 86.8125 50.6777 86.8125 55.0952V55.1807C86.8125 60.1872 83.0695 62.795 77.5167 62.795C73.693 62.795 69.9072 61.6597 66.796 59.3845Z" fill="white"/>
</svg>
