<?xml version="1.0" encoding="UTF-8"?>
<svg width="64px" height="64px" viewBox="0 0 64 64" version="1.1" xmlns="http://www.w3.org/2000/svg" xmlns:xlink="http://www.w3.org/1999/xlink">
    <!-- Generator: sketchtool 54.1 (76490) - https://sketchapp.com -->
    <title>BF44205E-AFB2-4938-837C-34F280207BBE</title>
    <desc>Created with sketchtool.</desc>
    <g id="Help-hub" stroke="none" stroke-width="1" fill="none" fill-rule="evenodd">
        <g id="Help-Hub_Home" transform="translate(-303.000000, -900.000000)" fill-rule="nonzero">
            <g id="list-cards" transform="translate(277.000000, 119.000000)">
                <g id="card-Support" transform="translate(0.000000, 708.000000)">
                    <g id="ODS_logo_support.ac5ec4b6b890eaf0dee0377259616f5b" transform="translate(26.000000, 73.000000)">
                        <path d="M16.4422222,25.2412698 C11.7977778,25.2412698 8.03269841,29.0761905 8.03269841,33.8069841 C8.03269841,38.5374603 11.7977778,42.372381 16.4422222,42.372381 C21.0866667,42.372381 24.851746,38.5374603 24.851746,33.8069841 C24.851746,29.0761905 21.0866667,25.2412698 16.4422222,25.2412698 Z" id="Path" fill="#0086D6"></path>
                        <path d="M0.253968254,56.7193651 C0.253968254,49.2688889 7.50190476,43.2288889 16.4422222,43.2288889 C25.3828571,43.2288889 32.6307937,49.2688889 32.6307937,56.7193651 L32.6307937,64 L0.253968254,64 L0.253968254,56.7193651 Z" id="Path" fill="#0086D6"></path>
                        <path d="M31.6596825,23.3733333 C29.3673016,20.9790476 28.0053968,17.9892063 28.0053968,14.7479365 C28.0053968,6.88857143 36.0130159,0.507936508 45.875873,0.507936508 C55.7387302,0.507936508 63.7460317,6.88857143 63.7460317,14.7479365 C63.7460317,22.6073016 55.7387302,28.9879365 45.875873,28.9879365 C41.4869841,28.9879365 37.4657143,27.7244444 34.3536508,25.6298413 L27.5847619,28.9879365 L31.6596825,23.3733333 Z M45.875873,20.7444444 C44.6565079,20.7444444 43.668254,21.7511111 43.668254,22.9930159 C43.668254,24.2346032 44.6565079,25.2412698 45.875873,25.2412698 C47.0949206,25.2412698 48.0831746,24.2346032 48.0831746,22.9930159 C48.0831746,21.7511111 47.0949206,20.7444444 45.875873,20.7444444 Z M45.875873,3.50666667 C43.1219048,3.50666667 40.4774603,4.91777778 39.3911111,7.37111111 C38.9907937,8.09174603 39.3184127,9.13492063 40.0580952,9.47904762 C40.7974603,9.8231746 41.7857143,9.39269841 42.0587302,8.61238095 C42.5009524,7.61333333 44.2377778,6.50444444 45.875873,6.50444444 C48.0555556,6.50444444 49.5549206,7.89619048 49.5549206,9.50253968 C49.5549206,10.1692063 49.3774603,10.5231746 49.0720635,10.907619 C48.7663492,11.2920635 48.2869841,11.672381 47.7152381,12.0085714 C47.1438095,12.3447619 46.5130159,12.6215873 45.8987302,13.0155556 C45.591746,13.2126984 45.2761905,13.4349206 44.9790476,13.7885714 C44.6815873,14.1422222 44.404127,14.7015873 44.404127,15.3107937 L44.404127,16.9971429 C44.3930159,17.7892063 45.0980952,18.5196825 45.875873,18.5196825 C46.6533333,18.5196825 47.3584127,17.7892063 47.3473016,16.9971429 L47.3473016,15.6387302 C47.3898413,15.6047619 48.4707937,15.0060317 49.1869841,14.5847619 C49.9031746,14.1634921 50.7114286,13.6352381 51.3714286,12.8047619 C52.031746,11.9742857 52.4984127,10.8273016 52.4984127,9.50253968 C52.4984127,6.04285714 49.3853968,3.50666667 45.875873,3.50666667 Z" id="Shape" fill="#00C7B1"></path>
                    </g>
                </g>
            </g>
        </g>
    </g>
</svg>