<?xml version="1.0" encoding="UTF-8" standalone="no"?><!DOCTYPE svg PUBLIC "-//W3C//DTD SVG 1.1//EN" "http://www.w3.org/Graphics/SVG/1.1/DTD/svg11.dtd"><svg width="100%" height="100%" viewBox="20 40 320 220" version="1.1" xmlns="http://www.w3.org/2000/svg" xmlns:xlink="http://www.w3.org/1999/xlink" xml:space="preserve" xmlns:serif="http://www.serif.com/" style="fill-rule:evenodd;clip-rule:evenodd;stroke-linejoin:round;stroke-miterlimit:1.41421;"><path d="M150.993,117.91c-14.63,0 -26.49,12.08 -26.49,26.982c0,14.901 11.86,26.981 26.49,26.981c14.63,0 26.49,-12.08 26.49,-26.981c0,-14.902 -11.86,-26.982 -26.49,-26.982Z" style="fill:#0e7598;"/><path d="M100,217.066c0,-23.469 22.831,-42.495 50.993,-42.495c28.163,0 50.994,19.026 50.994,42.495l0,22.934l-101.987,0l0,-22.934Z" style="fill:#0e7598;"/><path d="M198.928,112.026c-7.221,-7.542 -11.511,-16.96 -11.511,-27.17c0,-24.757 25.224,-44.856 56.292,-44.856c31.068,0 56.291,20.099 56.291,44.856c0,24.757 -25.223,44.856 -56.291,44.856c-13.825,0 -26.492,-3.98 -36.295,-10.578l-21.322,10.578l12.836,-17.686Zm44.781,-8.281c3.84,0 6.953,3.171 6.953,7.083c0,3.911 -3.113,7.082 -6.953,7.082c-3.841,0 -6.954,-3.171 -6.954,-7.082c0,-3.912 3.113,-7.083 6.954,-7.083Zm0,-54.299c11.055,0 20.861,7.989 20.861,18.887c0,4.173 -1.47,7.786 -3.55,10.402c-2.079,2.616 -4.625,4.28 -6.881,5.607c-2.256,1.327 -5.661,3.213 -5.795,3.32l0,4.279c0.035,2.495 -2.186,4.796 -4.635,4.796c-2.45,0 -4.671,-2.301 -4.636,-4.796l0,-5.312c0,-1.919 0.874,-3.681 1.811,-4.795c0.936,-1.114 1.93,-1.814 2.897,-2.435c1.935,-1.241 3.922,-2.113 5.722,-3.172c1.801,-1.059 3.311,-2.257 4.274,-3.468c0.962,-1.211 1.521,-2.326 1.521,-4.426c0,-5.06 -4.723,-9.444 -11.589,-9.444c-5.16,0 -10.631,3.493 -12.024,6.64c-0.86,2.458 -3.973,3.814 -6.302,2.73c-2.33,-1.084 -3.362,-4.37 -2.101,-6.64c3.422,-7.728 11.752,-12.173 20.427,-12.173Z" style="fill:#f77a12;"/></svg>