<?xml version="1.0" encoding="UTF-8"?>
<svg width="64px" height="72px" viewBox="0 0 64 72" version="1.1" xmlns="http://www.w3.org/2000/svg" xmlns:xlink="http://www.w3.org/1999/xlink">
    <!-- Generator: sketchtool 54.1 (76490) - https://sketchapp.com -->
    <title>49131A4C-9D14-402A-A7B5-DAE066CEC898</title>
    <desc>Created with sketchtool.</desc>
    <g id="Help-hub" stroke="none" stroke-width="1" fill="none" fill-rule="evenodd">
        <g id="Help-Hub_Home" transform="translate(-303.000000, -424.000000)" fill-rule="nonzero">
            <g id="list-cards" transform="translate(277.000000, 119.000000)">
                <g id="card-faq/discovery" transform="translate(0.000000, 236.000000)">
                    <g id="ODS_picto_faq.48884c0779fb51144f9f691defaf62ec" transform="translate(26.000000, 69.000000)">
                        <path d="M52.7930435,31.6 L52.7930435,40.226087 C52.7863583,40.3010974 52.737032,40.3655339 52.6663673,40.3915683 C52.5957026,40.4176028 52.5163614,40.4005701 52.4626087,40.3478261 L43.698364,31.6 L36.24,31.6 C34.030861,31.6 32.24,29.809139 32.24,27.6 L32.24,4.11130435 C32.24,1.90216535 34.030861,0.111304348 36.24,0.111304348 L59.7286957,0.111304348 C61.9378347,0.111304348 63.7286957,1.90216535 63.7286957,4.11130435 L63.7286957,27.6 C63.7286957,29.809139 61.9378347,31.6 59.7286957,31.6 L52.7930435,31.6 Z" id="Combined-Shape" fill="#0086D6"></path>
                        <path d="M25.7598063,60.4521739 L14.6086957,71.6 C14.5380935,71.6700334 14.4323729,71.690887 14.3404654,71.6529085 C14.2485578,71.6149304 14.1883964,71.5255304 14.1878261,71.426087 L14.1878261,60.4521739 L5.27130435,60.4521739 C2.5098806,60.4521739 0.271304348,58.2135977 0.271304348,55.4521739 L0.271304348,25.3895652 C0.271304348,22.6281415 2.5098806,20.3895652 5.27130435,20.3895652 L35.333913,20.3895652 C38.0953368,20.3895652 40.333913,22.6281415 40.333913,25.3895652 L40.333913,55.4521739 C40.333913,58.2135977 38.0953368,60.4521739 35.333913,60.4521739 L25.7598063,60.4521739 Z" id="Combined-Shape" fill="#00C7B1"></path>
                        <path d="M17.6973913,44.1113043 C17.6243478,37.4608696 21.8713043,37.3843478 21.8713043,34.3721739 C21.8713043,32.8556522 20.9113043,32.2643478 19.6556522,32.2643478 C18.4497367,32.2713513 17.299904,32.7745604 16.4765217,33.6556522 L14.333913,29.773913 C15.773913,28.4069565 17.9547826,27.4817391 20.6156522,27.4817391 C24.6434783,27.4817391 27.4156522,29.7008696 27.4156522,33.6521739 C27.4156522,40.413913 21.8713043,39.12 22.1982609,44.813913 L22.2713043,45.7391304 L17.7495652,45.7391304 C17.6945093,45.198384 17.6770761,44.6544664 17.6973913,44.1113043 L17.6973913,44.1113043 Z M17.0434783,51.1304348 C17.0357704,50.3277656 17.3536239,49.556225 17.9244906,48.9919123 C18.4953573,48.4275997 19.2705167,48.1186765 20.0730435,48.1356522 C20.8736147,48.1235621 21.6439095,48.4413214 22.2031134,49.0143409 C22.7623173,49.5873607 23.0611862,50.3651795 23.0295652,51.1652174 C23.0295652,52.8278261 21.7356522,54.0834783 19.9617391,54.0834783 C19.1754864,54.1042456 18.4157123,53.798615 17.8628583,53.2391715 C17.3100043,52.679728 17.0133968,51.9163861 17.0434783,51.1304348 Z" id="Shape" fill="#FFFFFF"></path>
                    </g>
                </g>
            </g>
        </g>
    </g>
</svg>