<?xml version="1.0" encoding="UTF-8"?>
<svg width="64px" height="34px" viewBox="0 0 64 34" version="1.1" xmlns="http://www.w3.org/2000/svg" xmlns:xlink="http://www.w3.org/1999/xlink">
    <!-- Generator: sketchtool 54.1 (76490) - https://sketchapp.com -->
    <title>C3058DA0-F92C-45E8-BB95-F8A5FF514BBF</title>
    <desc>Created with sketchtool.</desc>
    <g id="Help-hub" stroke="none" stroke-width="1" fill="none" fill-rule="evenodd">
        <g id="Help-Hub_Home" transform="translate(-679.000000, -443.000000)" fill-rule="nonzero">
            <g id="list-cards" transform="translate(277.000000, 119.000000)">
                <g id="card-widgets" transform="translate(376.000000, 236.000000)">
                    <g id="ODS_picto_widget.9db89aeb6f556fd22883a08dbfba268d" transform="translate(26.000000, 88.000000)">
                        <rect id="Rectangle" fill="#0086D6" x="15.1230534" y="0.0610687023" width="33.590229" height="33.590229" rx="4"></rect>
                        <path d="M61.44,33.5022901 L57.8345038,33.5022901 C55.1110104,33.4982542 52.9041886,31.2914323 52.9001527,28.5679389 L52.9001527,5.14442748 C52.9041886,2.42093403 55.1110104,0.214112144 57.8345038,0.210076336 L61.44,0.210076336 C62.7472706,0.210076336 63.8070229,1.26982859 63.8070229,2.57709924 C63.8070229,3.88436988 62.7472706,4.94412214 61.44,4.94412214 L57.8345038,4.94412214 C57.7225292,4.94412214 57.6317557,5.03489556 57.6317557,5.14687023 L57.6317557,28.5703817 C57.6317557,28.6823563 57.7225292,28.7731298 57.8345038,28.7731298 L61.44,28.7731298 C62.7472706,28.7731298 63.8070229,29.8328821 63.8070229,31.1401527 C63.8070229,32.4474233 62.7472706,33.5071756 61.44,33.5071756 L61.44,33.5022901 Z" id="Path" fill="#00C7B1"></path>
                        <path d="M6.16549618,33.5022901 L2.56,33.5022901 C1.25272935,33.5022901 0.192977099,32.4425378 0.192977099,31.1352672 C0.192977099,29.8279966 1.25272935,28.7682443 2.56,28.7682443 L6.16549618,28.7682443 C6.27747085,28.7682443 6.36824427,28.6774708 6.36824427,28.5654962 L6.36824427,5.14442748 C6.36824427,5.03245281 6.27747085,4.94167939 6.16549618,4.94167939 L2.56,4.94167939 C1.25272935,4.94167939 0.192977099,3.88192713 0.192977099,2.57465649 C0.192977099,1.26738584 1.25272935,0.207633588 2.56,0.207633588 L6.16549618,0.207633588 C8.88898963,0.211669396 11.0958115,2.41849128 11.0998473,5.14198473 L11.0998473,28.5654962 C11.0971568,31.2899435 8.88994186,33.4982512 6.16549618,33.5022901 L6.16549618,33.5022901 Z" id="Path" fill="#00C7B1"></path>
                        <path d="M37.9285496,13.5450382 C37.416683,12.9735895 37.416683,12.1085479 37.9285496,11.5370992 C38.1742249,11.2609153 38.5262378,11.1029144 38.8958779,11.1029144 C39.2655179,11.1029144 39.6175309,11.2609153 39.8632061,11.5370992 L44.7316031,16.8549618 L39.8607634,22.1703817 C39.6150881,22.4465656 39.2630752,22.6045665 38.8934351,22.6045665 C38.5237951,22.6045665 38.1717821,22.4465656 37.9261069,22.1703817 C37.4142402,21.5989331 37.4142402,20.7338914 37.9261069,20.1624427 L40.96,16.8549618 L37.9285496,13.5450382 Z" id="Path" fill="#FAFAFA"></path>
                        <path d="M26.0714504,20.1648855 C26.583317,20.7363341 26.583317,21.6013758 26.0714504,22.1728244 C25.8257751,22.4490084 25.4737622,22.6070092 25.1041221,22.6070092 C24.7344821,22.6070092 24.382469,22.4490084 24.1367939,22.1728244 L19.2683969,16.8549618 L24.1392366,11.539542 C24.3849118,11.263358 24.7369248,11.1053572 25.1065649,11.1053572 C25.4762049,11.1053572 25.8282179,11.263358 26.0738931,11.539542 C26.5857598,12.1109906 26.5857598,12.9760323 26.0738931,13.5474809 L23.04,16.8549618 L26.0714504,20.1648855 Z" id="Path" fill="#FAFAFA"></path>
                        <path d="M30.717733,23.2820768 L35.9891834,12.7416188 C36.3630172,11.9941244 36.0601055,11.0851084 35.3126111,10.7112746 C34.5651168,10.3374408 33.6561007,10.6403525 33.282267,11.3878469 L28.0108166,21.9283049 C27.6369828,22.6757992 27.9398945,23.5848153 28.6873889,23.9586491 C29.4348832,24.3324829 30.3438993,24.0295711 30.717733,23.2820768 Z" id="Path" fill="#FAFAFA"></path>
                    </g>
                </g>
            </g>
        </g>
    </g>
</svg>