<?xml version="1.0" encoding="UTF-8" standalone="no"?><!DOCTYPE svg PUBLIC "-//W3C//DTD SVG 1.1//EN" "http://www.w3.org/Graphics/SVG/1.1/DTD/svg11.dtd"><svg width="100%" height="100%" viewBox="0 0 210 85" version="1.1" xmlns="http://www.w3.org/2000/svg" xmlns:xlink="http://www.w3.org/1999/xlink" xml:space="preserve" xmlns:serif="http://www.serif.com/" style="fill-rule:evenodd;clip-rule:evenodd;stroke-linejoin:round;stroke-miterlimit:1.41421;"><path d="M48,16.5l148.5,0l0,53.25l-148.5,0l3,-6l23.25,0l12.75,-21.375l-13.5,-22.125l-23.25,0l-2.25,-3.75Z" style="fill:#989898;"/><path d="M14.25,43.5l-10.5,18.75l10.5,19.5l22.5,0l11.25,-19.5l-11.25,-18.75l-22.5,0Z" style="fill:#213a78;"/><path d="M14.25,3l-10.5,18.75l10.5,19.5l22.5,0l11.25,-19.5l-11.25,-18.75l-22.5,0Z" style="fill:#213a78;"/><path d="M50.25,23.25l-10.5,18.75l10.5,19.5l22.5,0l11.25,-19.5l-11.25,-18.75l-22.5,0Z" style="fill:#213a78;"/><path d="M43.5,8.25l160.5,0l0,69l-161.25,0l3,-5.25l153.75,0l0,-58.5l-153.75,0l-2.25,-5.25Z" style="fill:#989898;"/><text x="91.5px" y="51.475px" style="font-family:'Arial-Black', 'Arial Black', sans-serif;font-weight:900;font-size:30px;fill:#fff;">WFS</text></svg>