<svg xmlns="http://www.w3.org/2000/svg" viewBox="0 0 400 280"><defs><style>.cls-1{fill:#0b81a3;}.cls-2{fill:#F88611;}.cls-3{fill:#abced9;}.cls-4{fill:#99c4ce;}</style></defs><title>ODS</title><g id="Calque_4" data-name="Calque 4"><rect class="cls-1" x="208.76" y="130.3" width="11.07" height="43.58" transform="translate(-48.28 162.34) rotate(-37.6)"/><path class="cls-2" d="M282.87,220.57c3.83,5,2.48,12.44-3,16.67h0c-5.5,4.23-13.06,3.63-16.89-1.35l-41.1-53.38c-3.83-5-2.48-12.44,3-16.67h0c5.49-4.23,13.06-3.63,16.89,1.35Z"/><path class="cls-1" d="M216.22,62A56.5,56.5,0,1,1,137,51.68,56.5,56.5,0,0,1,216.22,62Z"/><path class="cls-3" d="M142.9,59.36h0L200,133.53h0A46.81,46.81,0,1,0,142.9,59.36Z"/><path class="cls-4" d="M134.37,125A46.81,46.81,0,0,0,200,133.53L142.9,59.36A46.81,46.81,0,0,0,134.37,125Z"/></g></svg>