<svg id="e256c59e-f787-4c7a-8ff0-657c878eb7da" data-name="Layer 1" xmlns="http://www.w3.org/2000/svg" viewBox="0 0 109.59 109.59"><defs><style>.a115d9ca-21ce-4552-a10b-7c08a089a3cd{fill:#1d1d1b;}</style></defs><title>Sigle</title><path class="a115d9ca-21ce-4552-a10b-7c08a089a3cd" d="M36.26,60.1a10.42,10.42,0,0,0,.66-3.73,10.16,10.16,0,0,0-.69-3.75A9.25,9.25,0,0,0,31.4,47.5a8.65,8.65,0,0,0-3.61-.76,9,9,0,0,0-3.66.74,8.09,8.09,0,0,0-2.83,2,9.66,9.66,0,0,0-1.83,3,10.63,10.63,0,0,0,0,7.48,9.22,9.22,0,0,0,1.9,3,9,9,0,0,0,2.88,2,8.57,8.57,0,0,0,3.62.76,9,9,0,0,0,3.66-.73,8.73,8.73,0,0,0,2.85-2,9.53,9.53,0,0,0,1.86-3m26-.71a9.69,9.69,0,0,0,0-6.66,8.3,8.3,0,0,0-1.59-2.54A6.92,6.92,0,0,0,55.56,48a7,7,0,0,0-2.77.55,6.6,6.6,0,0,0-2.3,1.59,7.42,7.42,0,0,0-1.57,2.54,9.54,9.54,0,0,0-.57,3.4,9.4,9.4,0,0,0,.57,3.36A7.42,7.42,0,0,0,50.49,62a7,7,0,0,0,2.3,1.62,6.8,6.8,0,0,0,2.77.57,6.92,6.92,0,0,0,5.07-2.21,8.47,8.47,0,0,0,1.59-2.55m19-9.45V50c0,1,1.47,1.48,4.18,2.28,5.09,1.43,9.12,3.19,9.12,8.18v.1c0,5.65-4.23,8.6-10.5,8.6a20.81,20.81,0,0,1-12.17-3.8l3.38-5.47a16.72,16.72,0,0,0,8.84,2.95c1.57,0,2.28-.48,2.28-1.38v-.1c0-1-1.42-1.42-4.13-2.18-5.09-1.33-9.13-3-9.13-8.23v-.09c0-5.47,4.37-8.51,10.31-8.51a20.09,20.09,0,0,1,10.6,3l-3.09,5.71a17.43,17.43,0,0,0-7.6-2.38c-1.38,0-2.09.52-2.09,1.24M68.52,68.62h-5.8V64.43a13.15,13.15,0,0,1-3.44,3.33,9,9,0,0,1-5.1,1.38,11.28,11.28,0,0,1-4.32-.85,10.5,10.5,0,0,1-3.7-2.55,12.8,12.8,0,0,1-2.61-4.11,14.45,14.45,0,0,1-1-5.57,15,15,0,0,1,1-5.56,12.74,12.74,0,0,1,2.59-4.12,10.77,10.77,0,0,1,3.72-2.54A11.51,11.51,0,0,1,54.18,43a9.18,9.18,0,0,1,5.12,1.34,13.77,13.77,0,0,1,3.42,3.09V33.9h5.8ZM40.68,56.3a12.88,12.88,0,0,1-1,5A13,13,0,0,1,37,65.39a12.72,12.72,0,0,1-4.09,2.78,12.92,12.92,0,0,1-5.14,1,12.54,12.54,0,0,1-5.09-1,12.83,12.83,0,0,1-4-2.76A12.32,12.32,0,0,1,16,61.34a12.83,12.83,0,0,1-1-4.94,13,13,0,0,1,1-5,12.45,12.45,0,0,1,6.72-6.9,13.46,13.46,0,0,1,10.28,0,12.7,12.7,0,0,1,4.06,2.76,12.41,12.41,0,0,1,2.67,4.06,13.1,13.1,0,0,1,1,4.95m66.11-1.7a52,52,0,1,0-52,52,52,52,0,0,0,52-52"/></svg>