<?xml version="1.0" encoding="UTF-8"?>
<svg width="64px" height="75px" viewBox="0 0 64 75" version="1.1" xmlns="http://www.w3.org/2000/svg" xmlns:xlink="http://www.w3.org/1999/xlink">
    <!-- Generator: sketchtool 54.1 (76490) - https://sketchapp.com -->
    <title>EBFA52E6-9EAF-4DA0-AD97-F91F68EF11E2</title>
    <desc>Created with sketchtool.</desc>
    <g id="Help-hub" stroke="none" stroke-width="1" fill="none" fill-rule="evenodd">
        <g id="Help-Hub_Home" transform="translate(-679.000000, -186.000000)" fill-rule="nonzero">
            <g id="list-cards" transform="translate(277.000000, 119.000000)">
                <g id="card-discovery" transform="translate(376.000000, 0.000000)">
                    <g id="ODS_picto_discovery.4a08eacb81e7bea18b3ab267c5434ffa" transform="translate(26.000000, 67.000000)">
                        <polygon id="Rectangle" fill="#0086D6" transform="translate(37.321186, 42.079358) rotate(-37.600000) translate(-37.321186, -42.079358) " points="35.261651 33.9714508 39.3807208 33.9714508 39.3807208 50.1872647 35.261651 50.1872647"></polygon>
                        <path d="M62.8353488,67.5609302 C64.2604651,69.4213953 63.7581395,72.1897674 61.7190698,73.7637209 L61.7190698,73.7637209 C59.6725581,75.3376744 56.8595349,75.1144186 55.4344186,73.2613953 L40.1413953,53.3990698 C38.7162791,51.5386047 39.2186047,48.7702326 41.2576744,47.1962791 L41.2576744,47.1962791 C43.3004651,45.6223256 46.1172093,45.8455814 47.5423256,47.6986047 L62.8353488,67.5609302 Z" id="Path" fill="#00C7B1"></path>
                        <path d="M38.0353488,8.55813953 C43.222435,15.2967023 43.8391673,24.4964956 39.5979274,31.8671111 C35.3566871,39.2377269 27.0928491,43.3274132 18.66033,42.2289079 C10.227811,41.1304026 3.28751972,35.060072 1.07612491,26.8488708 C-1.1352699,18.6376697 1.81779852,9.90291479 8.55813953,4.71813953 C17.7589931,-2.3593003 30.9547545,-0.640286698 38.0353488,8.55813953 Z" id="Path" fill="#0086D6"></path>
                        <path d="M10.7534884,7.57581395 L10.7534884,7.57581395 L32,35.1739535 L32,35.1739535 C37.0642048,31.4249396 39.7088089,25.2331561 38.9156644,18.9823804 C38.1225202,12.7316046 34.0153056,7.39654128 28.1752588,5.03113879 C22.335212,2.66573631 15.6729915,3.63883988 10.7534884,7.57581395 Z" id="Path" fill="#DEE5EF"></path>
                        <path d="M7.57953488,32 C13.4479553,39.6176264 24.3793023,41.0383847 32,35.1739535 L10.7534884,7.57581395 C3.13348339,13.4444849 1.71257101,24.3786806 7.57953488,32 Z" id="Path" fill="#CBD2DB"></path>
                    </g>
                </g>
            </g>
        </g>
    </g>
</svg>